<!--
  - Copyright 2023 OrdinaryRoad
  -
  - Licensed under the Apache License, Version 2.0 (the "License");
  - you may not use this file except in compliance with the License.
  - You may obtain a copy of the License at
  -
  -    http://www.apache.org/licenses/LICENSE-2.0
  -
  - Unless required by applicable law or agreed to in writing, software
  - distributed under the License is distributed on an "AS IS" BASIS,
  - WITHOUT WARRANTIES OR CONDITIONS OF ANY KIND, either express or implied.
  - See the License for the specific language governing permissions and
  - limitations under the License.
  -->

<svg width="48" height="48" viewBox="0 0 1000 1000" version="1.1" xmlns="http://www.w3.org/2000/svg">
    <path d="M382.976 444.416v79.872l138.752 72.704 131.072-152.576-51.712-146.944-60.928-8.704z" fill="#160002"></path>
    <path d="M401.92 482.816l60.928 22.528v-28.672l54.784 46.592-1.536-72.192 38.912 36.352-7.168-75.776s19.968 7.68 19.968 5.632V336.896l-101.376 26.112-64.512 119.808z"
          fill="#F0F1F3">
    </path>
    <path d="M518.144 528.896c-1.024 0-2.56-0.512-3.584-1.536l-46.08-38.912v16.896c0 1.536-1.024 3.584-2.56 4.608-1.536 1.024-3.072 1.024-5.12 0.512l-60.928-22.528c-1.536-0.512-2.56-1.536-3.072-3.072-0.512-1.536-0.512-3.072 0.512-4.608l65.024-120.32c0.512-1.536 2.048-2.048 3.584-2.56l101.376-26.112c1.536-0.512 3.584 0 4.608 1.024 1.536 1.024 2.048 2.56 2.048 4.096v80.384c0 1.536-1.024 3.584-2.56 4.608-2.048 1.536-3.584 2.56-16.896-2.56l6.144 67.072c0 2.048-1.024 4.608-3.072 5.12-2.048 1.024-4.608 0.512-6.144-1.024l-29.696-27.648 1.024 59.392c0 2.048-1.024 4.096-3.072 5.12 0 1.536-1.024 2.048-1.536 2.048zM463.36 471.552c1.024 0 2.56 0.512 3.584 1.536l45.568 38.4-1.024-60.416c0-2.048 1.024-4.096 3.072-5.12 2.048-1.024 4.096-0.512 6.144 1.024l28.672 26.624-5.632-61.44c0-2.048 0.512-3.584 2.048-4.608 1.536-1.024 3.584-1.536 5.12-0.512 4.096 1.536 9.216 3.584 12.8 4.608V343.552l-92.16 23.552-60.928 112.64 48.128 17.92v-20.992c0-2.048 1.024-4.096 3.072-5.12h1.536z"
          fill="#160002">
    </path>
    <path d="M217.6 444.416s76.8-265.728 388.608-217.088c0 0 130.56-51.712 219.136 75.776 0 0-46.592 6.656-101.376 64.512 0 0 93.696 288.256-207.36 356.352 0 0-12.8 77.824-93.696 82.944 0 0 19.968-36.864 11.264-74.752l-51.2-59.392 1.024-94.208 103.424-39.936s104.96-49.664 76.8-222.208c0 0-6.656 108.544-160.768 165.376-84.48 30.72-185.856-37.376-185.856-37.376z"
          fill="#F0F1F3">
    </path>
    <path d="M714.752 227.328v-4.608c-58.88-14.848-108.544 4.608-108.544 4.608-73.216-11.264-133.632-5.632-183.296 10.24l-1.024 7.168 44.032 4.096s121.856-29.184 184.832 16.384l-28.16-25.6s47.616-13.312 92.16-12.288zM689.664 326.656s35.84 64 41.984 100.864l1.024-27.136-8.704-34.304s29.696-29.696 38.912-37.888c0 0-30.208 15.36-45.056 28.16l-28.16-29.696z"
          fill="#BBB8BD">
    </path>
    <path d="M422.912 812.032c-2.048 0-3.584-1.024-4.608-2.56-1.024-1.536-1.024-3.584 0-5.632 0-0.512 18.432-34.816 10.752-70.144L378.88 675.84c-1.024-1.024-1.536-2.048-1.536-3.584l1.024-94.208c0-2.048 1.536-4.096 3.584-5.12l103.424-39.936s25.088-12.288 47.104-45.056c17.408-26.624 35.84-71.68 30.208-141.312C549.376 384 512 446.976 405.504 486.4c-35.84 13.312-80.384 10.752-128.512-6.656-36.352-13.312-61.44-29.696-62.464-30.72-2.048-1.536-3.072-3.584-2.048-6.144 1.024-2.56 20.48-68.608 78.848-129.024 53.76-55.808 152.064-117.248 314.368-92.16 14.848-5.12 139.264-44.032 224.256 78.336 1.024 1.536 1.024 3.584 0.512 5.12-0.512 1.536-2.56 3.072-4.096 3.072-0.512 0-44.544 7.168-95.744 60.416 6.144 20.48 35.84 134.656-19.968 232.96-35.84 62.976-99.328 105.472-188.928 126.464-4.608 16.384-24.576 79.36-98.816 83.968 0.512 0 0.512 0 0 0z m-34.304-141.824l49.664 57.856c0.512 0.512 1.024 1.536 1.024 2.56 6.656 28.672-2.048 56.32-7.68 69.632 67.072-9.216 78.848-74.24 79.36-77.312 0.512-2.048 2.048-4.096 4.096-4.608 88.064-19.968 150.528-60.928 185.344-121.856 57.856-101.888 18.944-226.304 18.432-227.328-0.512-2.048 0-4.096 1.024-5.632 42.496-44.544 79.872-59.392 96.256-64-34.816-47.104-79.872-73.216-133.632-76.8-41.984-3.072-74.24 9.216-74.24 9.216-1.024 0.512-2.048 0.512-3.072 0.512-127.488-19.968-230.4 9.728-306.176 88.576-48.64 50.688-70.144 105.984-75.264 120.832 18.432 11.264 104.96 60.416 177.664 33.792 77.824-28.672 116.224-70.656 135.168-100.864 20.48-32.768 22.016-59.392 22.016-59.392 0-2.56 2.56-5.12 5.12-5.12s5.12 2.048 5.632 4.608c14.848 90.624-7.168 147.968-28.672 179.712-23.552 34.816-50.176 47.616-51.2 48.128L389.12 581.632l-0.512 88.576z"
          fill="#160002">
    </path>
    <path d="M396.495173 678.413203a126.976 96.768 22.942 1 0 75.440161-178.227286 126.976 96.768 22.942 1 0-75.440161 178.227286Z"
          fill="#FFC100">
    </path>
    <path d="M457.728 696.832c-20.48 0-41.984-4.096-63.488-13.312-67.072-28.672-103.936-93.696-81.92-145.92 10.752-25.6 33.792-44.032 64.512-51.712 30.208-7.68 65.024-4.608 97.28 9.216 32.256 13.824 58.88 36.352 74.24 63.488 15.872 27.648 18.432 56.832 7.68 82.432-14.848 35.328-53.76 55.808-98.304 55.808z m-47.104-204.288c-10.752 0-20.992 1.024-31.232 3.584-27.648 7.168-48.128 23.04-57.344 45.568-19.456 46.592 14.336 105.472 76.288 131.584 61.952 26.112 128 9.728 147.456-36.864 9.216-22.016 6.656-48.128-7.168-72.704-14.336-25.088-38.912-46.08-69.12-58.88C450.56 496.64 430.08 492.544 410.624 492.544z"
          fill="#160002">
    </path>
    <path d="M351.744 650.24c-0.512-16.384 1.536-32.768 5.12-48.64 4.096-15.872 10.24-31.232 18.432-45.568 4.096-7.168 8.704-13.824 13.824-20.992 5.632-6.144 10.752-12.8 16.896-17.92 11.776-11.264 26.624-19.968 41.472-26.624 0.512-0.512 1.536 0 2.048 0.512 0 0.512 0 1.024-0.512 1.536-12.288 10.24-25.088 19.456-35.84 31.232-2.56 2.56-5.632 5.632-7.68 8.704l-7.68 8.704c-4.608 6.656-9.216 12.288-13.312 19.456-8.192 13.312-14.848 27.648-20.48 42.496-5.632 15.872-9.728 31.232-12.288 47.104z"
          fill="#160002">
    </path>
    <path d="M395.776 536.064c-27.648-10.752-56.32-19.456-84.992-26.624-14.336-3.584-29.184-6.144-43.52-8.192-7.168-0.512-14.336-1.536-21.504-1.024-7.168 0-14.336 0.512-20.992 2.56-6.656 2.048-12.288 5.12-15.872 9.728-3.584 4.608-4.608 11.264-4.608 17.408 1.024 12.8 9.216 25.088 18.944 35.84 19.456 21.504 45.056 37.888 70.656 52.736 0.512 0 0.512 0.512 0.512 1.024s-0.512 0.512-1.024 0.512c-13.824-5.632-27.136-12.8-39.936-20.48s-25.088-16.384-36.352-27.136c-5.632-5.12-10.752-11.264-14.848-17.92-4.096-6.656-7.68-14.336-8.192-23.04-0.512-8.704 1.536-17.408 7.168-24.576 5.632-7.168 13.824-10.752 21.504-12.8 7.68-2.048 15.872-2.56 23.552-2.048 7.68 0 15.36 1.024 23.04 2.048 14.848 2.048 29.696 6.144 44.032 10.24 28.672 8.192 56.832 19.456 83.968 31.744 0.512 0 0.512 0.512 0.512 1.024-1.536-1.024-2.048-1.024-2.048-1.024z"
          fill="#160002">
    </path>
    <path d="M424.448 301.568m-70.144 0a70.144 70.144 0 1 0 140.288 0 70.144 70.144 0 1 0-140.288 0Z" fill="#FFFFFF">
    </path>
    <path d="M495.616 301.568c0 18.432-7.68 36.864-20.992 50.176-13.312 13.312-31.232 20.48-50.176 20.992-18.432 0.512-37.376-6.656-51.2-19.456s-22.528-31.744-23.04-51.2c0-9.728 1.536-19.456 5.12-28.672 3.584-9.216 9.216-17.408 16.384-24.576 7.168-6.656 15.36-12.288 24.576-15.872 9.216-3.584 18.944-5.12 28.672-5.12 19.456 0.512 38.4 9.216 51.2 23.04 12.8 13.312 19.968 32.256 19.456 50.688z m-2.048 0c-0.512-17.92-8.192-35.328-20.992-47.616-12.8-12.288-30.208-18.944-47.616-17.92-17.408 0.512-33.792 8.192-45.568 19.968-11.776 11.776-18.944 28.672-19.456 45.568-0.512 16.896 5.632 34.816 17.92 47.616 11.776 12.8 29.184 20.992 47.616 21.504 17.92 0.512 36.352-7.168 48.64-19.968 6.144-6.656 11.776-13.824 14.848-22.528 3.072-8.192 4.608-17.408 4.608-26.624z"
          fill="#160002">
    </path>
    <path d="M464.896 335.872c-15.36 0-27.648-12.288-27.648-27.648 0-15.36 12.288-27.648 27.648-27.648 2.56 0 5.632 0.512 7.68 1.024-8.192-14.848-24.064-24.576-41.984-24.576-15.36 0-28.672 7.168-37.888 18.432 7.68 0.512 14.336 7.168 14.336 15.36s-6.656 15.36-15.36 15.36c-3.584 0-6.656-1.024-9.216-3.072v2.56c0 26.624 21.504 48.128 48.128 48.128 14.848 0 27.648-6.656 36.352-16.896 0-1.024-1.024-1.024-2.048-1.024z"
          fill="#160002">
    </path>
    <path d="M542.208 524.288s-36.864 56.32-122.88 58.88c0 0 31.744 68.096 143.36 34.816 55.296-16.384 73.216-82.944 73.216-82.944"
          fill="#F0F1F3">
    </path>
    <path d="M542.72 524.8c-6.656 9.728-14.848 18.432-24.064 26.112-9.216 7.68-18.944 14.336-29.696 19.456-10.752 5.12-22.016 9.728-33.792 12.8-5.632 1.536-11.776 2.56-17.408 3.584-6.144 1.024-11.776 1.536-17.92 2.048l4.608-7.68c2.048 4.096 5.12 8.704 8.704 12.8 1.536 2.048 3.584 4.096 5.632 5.632 2.048 1.536 4.096 3.584 6.144 5.12 8.704 6.656 18.432 11.264 29.184 14.336 20.992 6.144 44.032 5.632 66.048 1.536 10.752-2.56 22.016-4.608 32.256-8.704 10.24-4.096 19.456-11.264 27.648-18.944 15.872-15.872 27.648-35.84 34.816-57.856 0-0.512 0.512-0.512 1.024-0.512s0.512 0.512 0.512 1.024c-3.072 11.264-7.68 21.504-13.312 31.744s-12.288 19.456-20.48 28.16c-8.192 8.192-17.408 15.872-28.16 20.48-10.752 5.12-22.016 7.68-33.28 10.24-22.528 5.12-46.592 6.656-69.632 0.512-11.264-3.072-22.528-7.68-32.768-14.336-2.56-1.536-4.608-3.584-7.168-5.632-2.048-2.048-4.608-4.096-6.656-6.144-4.096-4.608-7.68-9.216-11.264-14.848-1.536-2.56-0.512-5.632 2.048-7.168 0.512-0.512 1.536-0.512 2.048-0.512h0.512c5.632-0.512 11.264 0 16.896-0.512 5.632-0.512 11.264-1.024 16.896-2.56 11.264-2.048 22.016-5.632 32.768-9.728 10.752-4.608 20.48-10.24 30.208-16.896 9.216-6.656 17.92-14.848 25.088-24.064h0.512c2.048 0 2.048 0 2.048 0.512z"
          fill="#160002">
    </path>
</svg>
